<svg width="32" height="32" viewBox="0 0 32 32" fill="none" xmlns="http://www.w3.org/2000/svg">
  <rect width="32" height="32" rx="8" fill="#3B82F6"/>
  <path d="M22 12H10C9.44772 12 9 12.4477 9 13V21C9 21.5523 9.44772 22 10 22H22C22.5523 22 23 21.5523 23 21V13C23 12.4477 22.5523 12 22 12Z" stroke="white" stroke-width="2" stroke-linecap="round" stroke-linejoin="round"/>
  <path d="M16 19C17.6569 19 19 17.6569 19 16C19 14.3431 17.6569 13 16 13C14.3431 13 13 14.3431 13 16C13 17.6569 14.3431 19 16 19Z" stroke="white" stroke-width="2" stroke-linecap="round" stroke-linejoin="round"/>
  <path d="M20 10V12" stroke="white" stroke-width="2" stroke-linecap="round" stroke-linejoin="round"/>
  <path d="M12 10V12" stroke="white" stroke-width="2" stroke-linecap="round" stroke-linejoin="round"/>
</svg> 